<svg width="20" height="26" viewBox="0 0 20 26" fill="none" xmlns="http://www.w3.org/2000/svg">
<path d="M16.7286 0.584502V3.60839C15.2787 1.34073 12.85 0 9.67916 0C3.9801 0 0 4.08944 0 9.86308C0 15.6015 3.94558 19.5875 9.71368 19.5875C12.6135 19.5875 14.8401 18.523 16.7286 16.3578V16.9764C16.7286 20.9965 14.8736 22.6114 9.91573 22.6114C6.91441 22.6114 5.22794 21.6845 4.89085 19.691H1.21434C1.58493 23.5394 4.58727 25.7046 9.88223 25.7046C16.9642 25.7046 20 22.9207 20 16.7012V0.584502H16.7286ZM10.1858 3.0932C14.368 3.0932 16.9642 5.63604 16.9642 9.86308C16.9642 14.0208 14.368 16.4954 10.1858 16.4954C6.00366 16.4954 3.43994 14.0549 3.43994 9.86308C3.43994 5.63604 6.00366 3.0932 10.1858 3.0932Z" fill="#06286E"/>
</svg>
